<svg xmlns="http://www.w3.org/2000/svg" width="128" height="128" viewBox="4 4 112 112" role="img" aria-label="GitDNA favicon option C">
  <defs>
    <linearGradient id="g1" x1="0%" y1="0%" x2="100%" y2="100%">
      <stop offset="0%" stop-color="#00e5ff" />
      <stop offset="100%" stop-color="#cc44ff" />
    </linearGradient>
  </defs>

  <rect x="0" y="0" width="120" height="120" rx="24" fill="#060d14" />
  <rect x="0" y="0" width="120" height="120" rx="24" fill="none" stroke="url(#g1)" stroke-width="1.5" opacity="0.6" />

  <text x="17" y="92" font-family="'Courier New', monospace" font-size="80" font-weight="700" fill="#060d14">G</text>
  <text x="15" y="90" font-family="'Courier New', monospace" font-size="80" font-weight="700" fill="url(#g1)">G</text>

  <path d="M76 18 Q80 32 76 48 Q72 64 76 80 Q80 96 76 112" stroke="#00e5ff" stroke-width="2" fill="none" stroke-linecap="round" opacity="0.95" />
  <path d="M85 18 Q81 32 85 48 Q89 64 85 80 Q81 96 85 112" stroke="#cc44ff" stroke-width="2" fill="none" stroke-linecap="round" opacity="0.95" />

  <line x1="76" y1="32" x2="85" y2="32" stroke="url(#g1)" stroke-width="1.5" />
  <line x1="76" y1="48" x2="85" y2="48" stroke="url(#g1)" stroke-width="1.5" />
  <line x1="76" y1="64" x2="85" y2="64" stroke="url(#g1)" stroke-width="1.5" />
  <line x1="76" y1="80" x2="85" y2="80" stroke="url(#g1)" stroke-width="1.5" />
  <line x1="76" y1="96" x2="85" y2="96" stroke="url(#g1)" stroke-width="1.5" />
</svg>
